inDegrees=yes
name=ik_wink_l
DataType=double
version=3
OpenSimVersion=4.5
endheader
time	pelvis_tilt	pelvis_list	pelvis_rotation	pelvis_tx	pelvis_ty	pelvis_tz	hip_flexion_r	hip_adduction_r	hip_rotation_r	knee_angle_r	knee_angle_r_beta	ankle_angle_r	subtalar_angle_r	mtp_angle_r	hip_flexion_l	hip_adduction_l	hip_rotation_l	knee_angle_l	knee_angle_l_beta	ankle_angle_l	subtalar_angle_l	mtp_angle_l	lumbar_extension	lumbar_bending	lumbar_rotation	arm_flex_r	arm_add_r	arm_rot_r	elbow_flex_r	pro_sup_r	wrist_flex_r	wrist_dev_r	arm_flex_l	arm_add_l	arm_rot_l	elbow_flex_l	pro_sup_l	wrist_flex_l	wrist_dev_l
25	4.094072246705974	43.79425259179612	23.93573954324229	0	0.9399999999999999	0	45.03311020024528	-10.03010542444738	0	59.81204206382833	1.043917066355149	-5.010195802985141	0	0	45.03311020024528	-10.03010542444738	0	59.81204206382833	1.043917066355149	-5.010195802985141	0	0	-2.85091104211368	43.56172223563379	16.68378071485544	0	-14.79429778460044	0	74.8424644226195	44.93052776851886	0	-5.671084243565309e-38	-10.2355102490634	-63.0477962779604	-3.965537116806962	0.001214302726481877	44.93052776851886	0	-5.671084243565309e-38
26	1.688188760440716	45.83914908711476	24.8003828725592	0	0.9399999999999999	0	45.03286102849226	-10.02958324178135	0	59.81347074320829	1.043942001514284	-5.009986783113678	0	0	45.03286102849226	-10.02958324178135	0	59.81347074320829	1.043942001514284	-5.009986783113678	0	0	-5.702693662879541	46.79790106930701	15.54809211099455	0	-14.79525174876901	0	74.84365128679531	44.93156475386346	0	-1.130198451005792e-36	-11.89027451652482	-67.40388592603517	-2.250252821777068	0.001269074325596638	44.93156475386346	0	-1.130198451005792e-36
27	-0.8462763794573882	47.19044840425673	24.94530571579139	0	0.9399999999999999	0	45.03262714849922	-10.02909695971504	0	59.81481091405119	1.043965391908032	-5.009792619321989	0	0	45.03262714849922	-10.02909695971504	0	59.81481091405119	1.043965391908032	-5.009792619321989	0	0	-8.464052989570707	49.27227081098587	13.88910884133329	0	-14.79614927304884	0	74.84476531267927	44.93253230849109	0	-2.126622643128887e-37	-13.28683405524571	-70.86037129065832	-0.5292554487593218	0.001454152067912437	44.93253230849109	0	-2.126622643128887e-37
28	-3.695331747322977	48.08066467149801	23.87949703675143	0	0.9399999999999999	0	45.03240729283313	-10.02864278481895	0	59.81606945323696	1.043987357560589	-5.009611650240386	0	0	45.03240729283313	-10.02864278481895	0	59.81606945323696	1.043987357560589	-5.009611650240386	0	0	-10.70322326276575	51.17354080741309	11.71673271325224	0	-14.79699457237654	0	74.84581253735993	44.93343741774243	0	0	-13.63067824128775	-73.51997418510621	0.3625084108649232	0.001779962824934567	44.93343741774243	0	0
29	-5.157426791603307	48.79264546247659	23.22996763854592	0	0.9399999999999999	0	45.03227012847547	-10.02836179814581	0	59.81685415299427	1.044001053154994	-5.009500003856631	0	0	45.03227012847547	-10.02836179814581	0	59.81685415299427	1.044001053154994	-5.009500003856631	0	0	-11.65617208338514	52.33193644402861	10.72393678509776	0	-14.79752316319007	0	74.84646588372075	44.93399857589856	0	2.694034605743505e-36	-13.64643733659369	-75.01762683271313	0.5769689470340595	0.001999462109093153	44.93399857589856	0	2.694034605743505e-36
30	-4.321479206323256	48.81316938494479	23.80367017967288	0	0.9399999999999999	0	45.03205647891613	-10.02779777345036	0	59.81797510439134	1.044020617447628	-5.009258562194966	0	0	45.03205647891613	-10.02779777345036	0	59.81797510439134	1.044020617447628	-5.009258562194966	0	0	-11.07623271760044	52.0267819774466	11.52629447742183	0	-14.79828270554445	0	74.84748354785488	44.93505976221142	0	5.597690104760123e-49	-13.83205590899427	-74.61243550976721	0.6043343096645893	0.001826226861987141	44.93505976221142	0	5.597690104760123e-49
31	-1.710673352470206	47.57577848303989	24.76380112929742	0	0.9399999999999999	0	45.03188494246481	-10.02773173446583	0	59.81950997219845	1.044047405944444	-5.009251783353421	0	0	45.03188494246481	-10.02773173446583	0	59.81950997219845	1.044047405944444	-5.009251783353421	0	0	-8.967257572031901	49.80073359284727	13.48301842828196	0	-14.79918199232496	0	74.84830061499329	44.93529436243003	0	0	-13.48279726262686	-71.84321882240785	-0.00660318454827324	0.001454324598085846	44.93529436243003	0	0
32	0.5190489265553473	45.55392326068142	24.73812486813188	0	0.9399999999999999	0	45.03197633302932	-10.02781145865445	0	59.81988011662796	1.044053866183447	-5.009236716323304	0	0	45.03197633302932	-10.02781145865445	0	59.81988011662796	1.044053866183447	-5.009236716323304	0	0	-6.846745656760641	46.78862328444888	14.69231792284332	0	-14.79903873845013	0	74.84786530038228	44.93499207542728	0	0	-12.53311812632718	-68.16273187936362	-0.9316220115235505	0.001245411146919458	44.93499207542728	0	0
33	2.277538440519796	43.91553867343315	23.30368011296553	0	0.9399999999999999	0	45.03202227236405	-10.02761460553005	0	59.82047263361727	1.044064207555785	-5.009076938147852	0	0	45.03202227236405	-10.02761460553005	0	59.82047263361727	1.044064207555785	-5.009076938147852	0	0	-3.970535010147505	43.96658933925311	15.52007716117515	0	-14.79903913650965	0	74.84764648154359	44.93512025985466	0	0	-10.18380673656278	-64.32747826591974	-3.0325381349618	0.001160902971077243	44.93512025985466	0	0
34	3.499094043442624	42.70006893187188	21.3322069935728	0	0.9399999999999999	0	45.03171235396172	-10.02686582311032	0	59.82256585886383	1.044100741228323	-5.008745401497165	0	0	45.03171235396172	-10.02686582311032	0	59.82256585886383	1.044100741228323	-5.008745401497165	0	0	-1.092282252336923	41.69032611456638	15.95480773929171	0	-14.80031408987306	0	74.84912269681394	44.93650613067359	0	-9.108947887737143e-65	-7.410406216581118	-61.06716958996411	-5.427235252516041	0.001152256249594294	44.93650613067359	0	-9.108947887737143e-65
35	4.402192587974407	41.30907909566487	19.11390313404635	0	0.9399999999999999	0	45.03151241013648	-10.02627231288117	0	59.82413961110276	1.044128208386503	-5.008462069786235	0	0	45.03151241013648	-10.02627231288117	0	59.82413961110276	1.044128208386503	-5.008462069786235	0	0	1.450862059840258	39.33574065148693	15.91104040606062	0	-14.80117877952842	0	74.85007507743912	44.93753145524195	0	-2.046831766373573e-36	-4.830331702474191	-57.75695867314003	-7.401098336685812	0.001140014788209988	44.93753145524195	0	-2.046831766373573e-36
36	4.665268766265787	40.44233563859344	17.03692804644595	0	0.9399999999999999	0	45.03119549436953	-10.02551074013555	0	59.82602286500046	1.044161077367669	-5.008139672242497	0	0	45.03119549436953	-10.02551074013555	0	59.82602286500046	1.044161077367669	-5.008139672242497	0	0	3.240553383622821	37.83373571190615	15.42673982424875	0	-14.80240633826264	0	74.85158462294635	44.93897693233129	0	0	-2.646071243233344	-55.56015652729653	-8.852183393745804	0.001173772210093672	44.93897693233129	0	0
37	5.476959923276004	39.83353765124505	15.93890746994641	0	0.9399999999999999	0	45.0308487589143	-10.02471693149486	0	59.82788730185799	1.044193617929529	-5.007819133587052	0	0	45.0308487589143	-10.02471693149486	0	59.82788730185799	1.044193617929529	-5.007819133587052	0	0	4.995277299469929	36.67956876069474	15.65611042533106	0	-14.80369610630193	0	74.85323620659733	44.94052937035187	0	9.617629293754153e-50	-0.9619082465280603	-53.86771788041407	-10.29726690236735	0.001178896760163721	44.94052937035187	0	9.617629293754153e-50
38	5.867983030023339	40.40529386877735	16.17288996245339	0	0.9399999999999999	0	45.03066184626789	-10.02428630490998	0	59.82882569397047	1.044209995961566	-5.007648645001995	0	0	45.03066184626789	-10.02428630490998	0	59.82882569397047	1.044209995961566	-5.007648645001995	0	0	5.47462311355747	37.20947320723707	16.07372166343028	0	-14.80436835978542	0	74.85412651610494	44.94137960748547	0	3.754922664498675e-68	-0.5001931355893731	-54.38118037850126	-10.91896293276867	0.001173060556678745	44.94137960748547	0	3.754922664498675e-68
39	5.820114006926672	41.31699514981928	17.71082612818888	0	0.9399999999999999	0	45.03066114738535	-10.02428449238719	0	59.82882891901793	1.044210052249263	-5.007647909599894	0	0	45.03066114738535	-10.02428449238719	0	59.82882891901793	1.044210052249263	-5.007647909599894	0	0	4.42497254451105	38.57993360814364	16.56555539988188	0	-14.80437072758836	0	74.8541298450499	44.9413831080766	0	-3.984784833344162e-66	-1.712617015355678	-56.31924580732149	-10.2389276820561	0.001138352831296499	44.9413831080766	0	-3.984784833344162e-66
